<?xml version="1.0" encoding="UTF-8" standalone="no"?>
<svg
   version="1.1"
   viewBox="0 0 24 40"
   id="svg8"
   sodipodi:docname="marker.svg"
   inkscape:version="1.2.2 (1:1.2.2+202305151914+b0a8486541)"
   xmlns:inkscape="http://www.inkscape.org/namespaces/inkscape"
   xmlns:sodipodi="http://sodipodi.sourceforge.net/DTD/sodipodi-0.dtd"
   xmlns="http://www.w3.org/2000/svg"
   xmlns:svg="http://www.w3.org/2000/svg">
  <defs
     id="defs12" />
  <sodipodi:namedview
     id="namedview10"
     pagecolor="#ffffff"
     bordercolor="#666666"
     borderopacity="1.0"
     inkscape:showpageshadow="2"
     inkscape:pageopacity="0.0"
     inkscape:pagecheckerboard="0"
     inkscape:deskcolor="#d1d1d1"
     showgrid="false"
     inkscape:zoom="5.4875001"
     inkscape:cx="-40.273348"
     inkscape:cy="32.984054"
     inkscape:window-width="1920"
     inkscape:window-height="1052"
     inkscape:window-x="0"
     inkscape:window-y="0"
     inkscape:window-maximized="1"
     inkscape:current-layer="svg8" />
  <path
     d="m7.9033 28.05c1.7991 3.3632 3.2845 6.992 4.1269 11.353 1.2188-6.6157 4.0018-11.444 6.9668-16.178 0.99544-1.5894 1.9874-3.1779 2.7785-4.9115 0.4053-0.88813 0.86085-1.7196 1.1441-2.7143 0.27988-0.98269 0.47855-2.1674 0.44949-3.4467-0.056764-2.497-0.73346-4.4113-1.7162-6.0317-21.658 2.3052-21.208 8.1045-13.75 21.93z"
     style="fill-opacity:1;fill:#5cffff;opacity:1;stroke-linejoin:bevel;stroke-width:1;stroke:#555555;stroke-opacity:1;stroke-dasharray:none"
     id="path2" />
  <ellipse
     id="point"
     cx="12"
     cy="6.3189321"
     rx="5.3025899"
     ry="5.5911374"
     clip-rule="evenodd"
     fill-rule="evenodd"
     style="fill:#5cffff;fill-opacity:1;stroke-width:1;stroke:#333333;stroke-opacity:1;stroke-dasharray:none" />
  <path
     d="m16.106 28.05c-1.7991 3.3632-3.2845 6.992-4.1269 11.353-1.2188-6.6157-4.0018-11.444-6.9668-16.178-0.99545-1.5894-1.9874-3.1779-2.7785-4.9115-0.4053-0.88813-0.86085-1.7196-1.1441-2.7143-0.27988-0.98269-0.47855-2.1674-0.44949-3.4467 0.056763-2.497 0.73346-4.4113 1.7162-6.0317 21.658 2.3052 21.208 8.1045 13.75 21.93z"
     style="fill-opacity:0.69999999;fill:#ffe45c;opacity:1;stroke-linejoin:bevel;stroke-width:1;stroke:#555555;stroke-opacity:1;stroke-dasharray:none"
     id="path5" />
  <path
     id="mark"
     d="m12.03 39.402c-0.84245-4.3606-2.3278-7.9894-4.1269-11.353-1.3345-2.4947-2.8804-4.7974-4.3108-7.2165-0.47749-0.80759-0.88957-1.6608-1.3484-2.4989-0.91743-1.6759-1.6613-3.6189-1.614-6.1394 0.04618-2.4626 0.72167-4.4381 1.6957-6.0533 1.602-2.6565 4.2855-4.8346 7.8861-5.407 2.9439-0.468 5.704 0.32268 7.6614 1.5295 1.5995 0.98618 2.8381 2.3035 3.7796 3.856 0.98271 1.6204 1.6594 3.5347 1.7162 6.0317 0.02905 1.2793-0.16962 2.464-0.4495 3.4467-0.28325 0.99468-0.73879 1.8261-1.1441 2.7143-0.79117 1.7337-1.7831 3.3221-2.7785 4.9116-2.965 4.7342-5.748 9.5623-6.9668 16.178z"
     clip-rule="evenodd"
     fill="#fff"
     fill-rule="evenodd"
     stroke="#000"
     stroke-miterlimit="10"
     stroke-width=".82566"
     style="fill:none;stroke-linejoin:round;stroke-width:1.2;stroke:#333" />
</svg>
